<svg width="32" height="32" viewBox="0 0 32 32" fill="none" xmlns="http://www.w3.org/2000/svg">
<rect width="32" height="32" rx="4" fill="white"/>
<path opacity="0.4" d="M17.7505 13.703V11.6832C17.354 11.6832 17.0251 11.3638 17.0251 10.9786V8.57356C17.0251 8.2532 16.764 8.00049 16.4352 8.00049H9.7911C7.70213 8.00049 6 9.653 6 11.6832V14.1155C6 14.3043 6.07737 14.4828 6.21277 14.6143C6.34816 14.7449 6.53191 14.8201 6.72534 14.8201C7.46035 14.8201 8.02128 15.3274 8.02128 15.9944C8.02128 16.6905 7.45068 17.2448 6.73501 17.2533C6.33849 17.2533 6 17.5257 6 17.9203V20.3262C6 22.3555 7.70213 23.9995 9.78143 23.9995H16.4352C16.764 23.9995 17.0251 23.745 17.0251 23.4265V21.3963C17.0251 21.0027 17.354 20.6917 17.7505 20.6917V18.8701C17.354 18.8701 17.0251 18.5497 17.0251 18.1655V14.4076C17.0251 14.0224 17.354 13.703 17.7505 13.703Z" fill="#12B28C"/>
<path d="M23.9787 15.9948C23.9787 16.69 24.559 17.2443 25.265 17.2537C25.6615 17.2537 26 17.5262 26 17.9113V20.3258C26 22.3559 24.3075 24 22.2186 24H19.0658C18.7466 24 18.4758 23.7454 18.4758 23.426V21.3967C18.4758 21.0022 18.1567 20.6921 17.7505 20.6921V18.8705C18.1567 18.8705 18.4758 18.5502 18.4758 18.1659V14.4081C18.4758 14.022 18.1567 13.7035 17.7505 13.7035V11.6827C18.1567 11.6827 18.4758 11.3633 18.4758 10.9781V8.57401C18.4758 8.25366 18.7466 8 19.0658 8H22.2186C24.3075 8 26 9.64406 26 11.6733V14.0407C26 14.2286 25.9226 14.4081 25.7872 14.5387C25.6518 14.6702 25.4681 14.7453 25.2747 14.7453C24.559 14.7453 23.9787 15.31 23.9787 15.9948Z" fill="#12B28C"/>
</svg>
