<svg width="29" height="30" viewBox="0 0 29 30" fill="none" xmlns="http://www.w3.org/2000/svg">
<path d="M11.7246 14.8683C11.7246 16.3872 12.9672 17.6185 14.5 17.6185C16.0328 17.6185 17.2754 16.3872 17.2754 14.8683C17.2754 13.3494 16.0328 12.1182 14.5 12.1182C12.9672 12.1182 11.7246 13.3494 11.7246 14.8683Z" fill="#716E6E"/>
<path d="M8.00945 10.0025C8.14287 9.64422 8.35571 9.31996 8.63228 9.05381C8.90088 8.77975 9.22789 8.56884 9.58963 8.43664C9.88301 8.32373 10.3237 8.18934 11.1355 8.15273C12.0137 8.11304 12.277 8.10449 14.5001 8.10449C16.7235 8.10449 16.9868 8.11282 17.8647 8.15251C18.6765 8.18934 19.1174 8.32373 19.4106 8.43664C19.7723 8.56884 20.0996 8.77975 20.3679 9.05381C20.6445 9.31996 20.8573 9.644 20.991 10.0025C21.1049 10.2932 21.2405 10.7301 21.2775 11.5345C21.3175 12.4045 21.3262 12.6654 21.3262 14.8685C21.3262 17.0715 21.3175 17.3323 21.2775 18.2025C21.2405 19.0069 21.1049 19.4436 20.991 19.7344C20.8573 20.0928 20.6447 20.4169 20.3682 20.683C20.0996 20.9571 19.7725 21.168 19.4108 21.3002C19.1174 21.4133 18.6765 21.5477 17.8647 21.5843C16.9868 21.624 16.7237 21.6323 14.5003 21.6323C12.2767 21.6323 12.0135 21.624 11.1357 21.5843C10.324 21.5477 9.88301 21.4133 9.58963 21.3002C8.86348 21.0226 8.28956 20.4539 8.00945 19.7344C7.89551 19.4436 7.75988 19.0069 7.72271 18.2025C7.68266 17.3323 7.67426 17.0715 7.67426 14.8685C7.67426 12.6654 7.68266 12.4045 7.72271 11.5345C7.75966 10.7301 7.89529 10.2932 8.00945 10.0025ZM14.5001 19.1049C16.8615 19.1049 18.7758 17.2083 18.7758 14.8683C18.7758 12.5283 16.8615 10.6317 14.5001 10.6317C12.1389 10.6317 10.2246 12.5283 10.2246 14.8683C10.2246 17.2083 12.1389 19.1049 14.5001 19.1049ZM10.0556 11.4543C10.6074 11.4543 11.0548 11.011 11.0548 10.4642C11.0548 9.9174 10.6074 9.47409 10.0556 9.47409C9.50379 9.47409 9.05642 9.9174 9.05642 10.4642C9.05664 11.011 9.50379 11.4543 10.0556 11.4543Z" fill="#716E6E"/>
<path d="M14.5 0.5C22.5069 0.5 29 6.93406 29 14.8682C29 22.8023 22.5069 29.2363 14.5 29.2363C6.4931 29.2363 0 22.8023 0 14.8682C0 6.93406 6.4931 0.5 14.5 0.5ZM6.22405 18.2697C6.26432 19.148 6.40526 19.7476 6.61102 20.2724C7.04357 21.3807 7.9277 22.2568 9.04613 22.6854C9.57558 22.8893 10.1809 23.0287 11.067 23.0689C11.9549 23.109 12.2386 23.1186 14.4998 23.1186C16.7612 23.1186 17.0446 23.109 17.9327 23.0689C18.8188 23.0287 19.4242 22.8893 19.9537 22.6854C20.5094 22.4782 21.0126 22.1535 21.4285 21.7337C21.852 21.3217 22.1797 20.823 22.3888 20.2724C22.5945 19.7478 22.7355 19.148 22.7757 18.2699C22.8167 17.3899 22.8262 17.1088 22.8262 14.8682C22.8262 12.6275 22.8167 12.3465 22.7759 11.4666C22.7357 10.5884 22.595 9.98874 22.3892 9.46388C22.1801 8.91337 21.8522 8.41459 21.4285 8.00264C21.0128 7.58279 20.5094 7.2581 19.9539 7.05091C19.4242 6.84702 18.8191 6.70758 17.9327 6.66746C17.0448 6.62734 16.7612 6.61769 14.5 6.61769C12.2388 6.61769 11.9552 6.62734 11.0673 6.66768C10.1809 6.70758 9.57581 6.84702 9.04613 7.0507C8.49056 7.25788 7.98721 7.58279 7.57126 8.00264C7.14778 8.41481 6.81989 8.91337 6.61102 9.46388C6.40504 9.98874 6.26432 10.5884 6.22383 11.4666C6.18334 12.3465 6.17383 12.6275 6.17383 14.8682C6.17383 17.1088 6.18334 17.3899 6.22405 18.2697Z" fill="#716E6E"/>
</svg>
