<svg width="27" height="26" viewBox="0 0 27 26" fill="#ffffff" xmlns="http://www.w3.org/2000/svg">
<path d="M21.375 0H5.625C2.51888 0 0 2.42558 0 5.41667V20.5833C0 23.5744 2.51888 26 5.625 26H21.375C24.4823 26 27 23.5744 27 20.5833V5.41667C27 2.42558 24.4823 0 21.375 0ZM9 20.5833H5.625V8.66667H9V20.5833ZM7.3125 7.293C6.22575 7.293 5.34375 6.43717 5.34375 5.382C5.34375 4.32683 6.22575 3.471 7.3125 3.471C8.39925 3.471 9.28125 4.32683 9.28125 5.382C9.28125 6.43717 8.40038 7.293 7.3125 7.293ZM22.5 20.5833H19.125V14.5123C19.125 10.8637 14.625 11.1399 14.625 14.5123V20.5833H11.25V8.66667H14.625V10.5788C16.1955 7.77725 22.5 7.57033 22.5 13.2611V20.5833Z" fill="#716E6E"/>
</svg>
