<svg width="29" height="29" viewBox="0 0 29 29" fill="none" xmlns="http://www.w3.org/2000/svg">
<path d="M20.3502 9.32153H8.6499L14.5001 14.336L20.3502 9.32153Z" fill="#716E6E"/>
<path d="M14.5 15.5356C14.3763 15.5356 14.2567 15.4914 14.1629 15.4107L7.76782 9.9292V19.6785H21.2321V9.9292L14.837 15.4107C14.7432 15.4914 14.6236 15.5356 14.5 15.5356Z" fill="#716E6E"/>
<path d="M14.5 0C6.49193 0 0 6.49193 0 14.5C0 22.5081 6.49193 29 14.5 29C22.5081 29 29 22.5081 29 14.5C28.9909 6.49572 22.5043 0.00910296 14.5 0ZM22.2679 20.1964C22.2679 20.4824 22.036 20.7143 21.75 20.7143H7.25C6.96402 20.7143 6.73214 20.4824 6.73214 20.1964V8.80357C6.73214 8.51759 6.96402 8.28571 7.25 8.28571H21.75C22.036 8.28571 22.2679 8.51759 22.2679 8.80357V20.1964Z" fill="#716E6E"/>
</svg>
