<svg width="251" height="242" viewBox="0 0 251 242" fill="none" xmlns="http://www.w3.org/2000/svg">
<path d="M195.744 0C153.864 0 121.088 16.8431 121.088 38.2384V60.3165C108.342 55.3091 92.4094 52.1225 74.6559 52.1225C32.7758 52.1225 0 68.9656 0 90.3609V194.606C0 213.498 25.7199 228.975 60.5441 232.162V246.273C60.5441 267.669 93.3198 284.512 135.2 284.512C177.08 284.512 209.856 267.669 209.856 246.273V232.162C244.68 228.975 270.4 213.498 270.4 194.606V38.2384C270.4 16.8431 237.624 0 195.744 0ZM74.6559 60.9993C114.032 60.9993 140.435 76.2491 140.435 90.3609C140.435 104.473 114.032 119.723 74.6559 119.723C35.2795 119.723 8.87677 104.473 8.87677 90.3609C8.87677 76.2491 35.2795 60.9993 74.6559 60.9993ZM8.87677 108.797C21.3953 120.633 45.7495 128.599 74.6559 128.599C103.562 128.599 127.916 120.633 140.435 108.797V116.536C140.435 130.648 114.032 145.898 74.6559 145.898C35.2795 145.898 8.87677 130.648 8.87677 116.536V108.797ZM8.87677 134.745C21.3953 146.58 45.7495 154.547 74.6559 154.547C103.562 154.547 127.916 146.58 140.435 134.745V142.483C140.435 147.036 137.704 151.588 132.696 155.912C108.114 156.368 87.1744 162.513 74.2006 171.845C35.0518 171.617 8.87677 156.595 8.87677 142.483V134.745ZM8.87677 160.92C20.0296 171.617 40.5145 178.901 65.3239 180.494C62.365 184.819 60.5441 189.371 60.5441 194.151V197.337C29.134 194.151 8.87677 181.177 8.87677 168.659V160.92ZM8.87677 194.834V187.095C19.3468 197.11 38.0108 204.166 60.5441 206.214V223.512C29.134 220.326 8.87677 207.125 8.87677 194.834ZM200.979 246.273C200.979 260.385 174.576 275.635 135.2 275.635C95.8235 275.635 69.4209 260.385 69.4209 246.273V238.535C81.9394 250.37 106.294 258.337 135.2 258.337C164.106 258.337 188.461 250.37 200.979 238.535V246.273ZM200.979 220.098C200.979 234.21 174.576 249.46 135.2 249.46C95.8235 249.46 69.4209 234.21 69.4209 220.098V212.36C81.9394 224.195 106.294 232.162 135.2 232.162C164.106 232.162 188.461 224.195 200.979 212.36V220.098ZM135.2 223.512C95.8235 223.512 69.4209 208.263 69.4209 194.151C69.4209 180.039 95.8235 164.789 135.2 164.789C174.576 164.789 200.979 180.039 200.979 194.151C200.979 208.263 174.576 223.512 135.2 223.512ZM261.523 194.834C261.523 207.352 241.266 220.326 209.856 223.512V206.214C232.389 204.166 251.281 196.882 261.523 186.867V194.834ZM261.523 168.659C261.523 181.177 241.266 194.151 209.856 197.337V194.151C209.856 189.371 208.263 184.819 205.076 180.494C229.885 178.901 250.37 171.617 261.523 160.92V168.659ZM261.523 142.483C261.523 156.595 235.348 171.617 196.199 171.845C185.274 163.879 168.659 158.416 149.312 156.595V146.58C162.058 151.588 177.991 154.774 195.744 154.774C224.423 154.774 249.005 146.808 261.523 134.972V142.483ZM261.523 116.536C261.523 130.648 235.12 145.898 195.744 145.898C176.625 145.898 160.692 142.256 149.312 137.021V120.405C162.058 125.413 177.991 128.599 195.744 128.599C224.423 128.599 249.005 120.633 261.523 108.797V116.536ZM261.523 90.3609C261.523 104.473 235.12 119.723 195.744 119.723C176.625 119.723 160.692 116.081 149.312 110.846V94.4579C162.058 99.4653 177.991 102.652 195.744 102.652C224.423 102.652 249.005 94.6855 261.523 82.8498V90.3609ZM261.523 64.4135C261.523 78.5252 235.12 93.775 195.744 93.775C176.17 93.775 159.782 90.1333 148.401 84.4431C146.125 76.7043 139.525 69.8761 129.965 64.6411V64.4135V56.6747C142.483 68.5104 166.838 76.4767 195.744 76.4767C224.423 76.4767 249.005 68.5104 261.523 56.6747V64.4135ZM195.744 67.6C156.368 67.6 129.965 52.3502 129.965 38.2384C129.965 24.1266 156.368 8.87677 195.744 8.87677C235.12 8.87677 261.523 24.1266 261.523 38.2384C261.523 52.3502 235.12 67.6 195.744 67.6Z" fill="white" fill-opacity="0.3"/>
</svg>
